<svg xmlns="http://www.w3.org/2000/svg" viewBox="0 0 400 290"><rect width="400" height="290" fill="#20282e"/><circle cx="350" cy="25" r="150" fill="#49b9ed" opacity=".06"/><g fill="none" stroke-linecap="round" stroke-linejoin="round"><path d="M65 175h75v65H65Zm95-45h75v110h-75Zm95-55h75v165h-75Z" fill="#3c464f"/><path d="M82 195h40m-40 20h40m55-60h40m-40 25h40m-40 25h40m55-105h40m-40 25h40m-40 25h40m-40 25h40m-40 25h40" stroke="#a7b0b7" stroke-width="7"/><path d="m75 135 85-50 55 12 92-57m-35 0h35v35" stroke="#49b9ed" stroke-width="10"/></g></svg>